<svg xmlns="http://www.w3.org/2000/svg" display="none">
	<symbol id="weibo" viewBox="0 0 1024 1024">
		<defs><style type="text/css"></style></defs>
		<path d="M512 1024C229.2224 1024 0 794.7776 0 512 0 229.2224 229.2224 0 512 0c282.7776 0 512 229.2224 512 512 0 282.7776-229.2224 512-512 512z m175.684267-547.072c-9.0112-2.781867-15.2576-4.625067-10.478934-16.810667 10.24-26.333867 11.332267-49.1008 0.187734-65.314133-20.8896-30.464-77.9776-28.791467-143.428267-0.8192 0 0-20.5312 9.181867-15.274667-7.458133 10.069333-33.041067 8.533333-60.7232-7.1168-76.6976-35.498667-36.266667-129.9456 1.365333-210.926933 84.002133C240.0256 455.765333 204.8 521.386667 204.8 578.082133c0 108.544 136.328533 174.506667 269.704533 174.506667 174.830933 0 291.140267-103.68 291.140267-186.026667 0-49.7152-41.045333-77.960533-77.960533-89.634133z m-212.821334 236.765867c-106.410667 10.717867-198.2976-38.365867-205.2096-109.704534-6.912-71.304533 73.7792-137.8304 180.189867-148.565333 106.4448-10.734933 198.314667 38.3488 205.2096 109.653333 6.894933 71.338667-73.7792 137.898667-180.189867 148.616534z m5.802667-198.007467c-50.875733-13.909333-108.3904 12.6976-130.491733 59.8016-22.528 48.008533-0.733867 101.2736 50.653866 118.7328 53.248 18.005333 116.036267-9.6256 137.847467-61.3888 21.538133-50.705067-5.341867-102.8608-58.026667-117.1456z m-4.778667 76.680533c-3.720533 6.7072-11.997867 9.9328-18.466133 7.168-6.382933-2.781867-8.379733-10.274133-4.7616-16.896 3.7376-6.5536 11.6736-9.728 18.0224-7.099733 6.4512 2.491733 8.789333 10.069333 5.205333 16.827733zM441.821867 638.293333c-10.359467 17.288533-32.477867 24.8832-49.152 16.896-16.469333-7.850667-21.316267-27.989333-10.973867-44.885333 10.205867-16.7936 31.624533-24.32 48.1792-17.032533 16.759467 7.509333 22.101333 27.4944 11.946667 45.021866z m363.9296-354.816c-40.277333-46.592-99.669333-64.375467-154.487467-52.224h-0.017067c-12.680533 2.850133-20.770133 15.872-18.056533 29.098667 2.696533 13.226667 15.172267 21.7088 27.8528 18.8416 39.0144-8.618667 81.220267 4.027733 109.858133 37.12 28.586667 33.1264 36.352 78.267733 24.1152 117.845333v0.017067c-3.9936 12.9024 2.747733 26.6752 15.121067 30.839467 12.305067 4.181333 25.565867-2.884267 29.5424-15.701334v-0.136533c17.237333-55.671467 6.331733-119.125333-33.928533-165.700267z m-59.528534 67.293867c-20.992-22.1184-51.968-30.532267-80.571733-24.746667-11.707733 2.3552-19.165867 13.294933-16.622933 24.405334 2.474667 11.093333 13.994667 18.210133 25.617066 15.803733v0.017067c13.994667-2.816 29.149867 1.297067 39.424 12.066133 10.274133 10.820267 13.038933 25.582933 8.618667 38.5024h0.017067c-3.669333 10.8032 2.56 22.391467 13.909333 25.9072 11.400533 3.447467 23.586133-2.440533 27.255467-13.2608 8.994133-26.453333 3.3792-56.558933-17.646934-78.677333z" fill="#E6172D" p-id="16950"></path>
	</symbol>
	<symbol id="douban" viewBox="0 0 1024 1024">
		<defs><style type="text/css"></style></defs>
		<path d="M513.536 20.48c-271.872 0-492.032 220.16-492.032 492.032s220.16 492.032 492.032 492.032c271.872 0 492.032-220.16 492.032-492.032s-220.16-492.032-492.032-492.032z m-231.936 250.88h465.92v51.2h-465.92v-51.2z m424.96 107.52v204.8h-384v-204.8h384z m-440.32 373.76v-51.2h144.384c-13.312-25.6-30.208-56.832-51.2-89.088l51.2-20.48c20.48 30.208 38.4 68.608 54.784 109.568h97.28c19.456-30.72 36.352-69.12 50.688-109.056l55.808 20.48c-14.848 33.792-30.208 63.488-47.104 89.088h135.168v51.2H266.24z" fill="#008000" p-id="20103"></path><path d="M378.88 430.08h276.48v102.4h-276.48z" fill="#008000" p-id="20104"></path>
	</symbol>
	<symbol id="wechat" viewBox="0 0 1024 1024">
		<defs><style type="text/css"></style></defs>
		<path d="M579.584 511.54944a24.63744 24.63744 0 0 0-23.06048 24.18688c1.29024 12.06272 11.264 21.2992 23.36768 21.66784 17.5104 0 29.696-10.83392 29.696-21.66784 0-13.35296-12.55424-24.1664-29.696-24.1664h-0.28672z m-76.8-112.55808A27.83232 27.83232 0 0 0 532.48 369.82784a27.38176 27.38176 0 0 0-29.696-29.16352c-17.48992 0-34.2016 10.83392-34.2016 29.16352 0 18.3296 16.71168 29.16352 34.2016 29.16352zM512 0C229.23264 0 0 229.23264 0 512s229.23264 512 512 512 512-229.23264 512-512A512 512 0 0 0 512 0z m-96.4608 641.69984a275.80416 275.80416 0 0 1-82.59584-13.35296l-84.5824 42.5984 24.18688-71.76192c-59.20768-41.69728-94.45376-94.6176-94.45376-158.49472 0-113.4592 106.76224-200.35584 236.93312-200.35584 115.0976 0 217.7024 68.42368 237.44512 165.19168a115.52768 115.52768 0 0 0-22.26176-2.51904c-113.4592 0-201.0112 85.0944-201.0112 187.65824 0.1024 16.896 2.3552 33.73056 6.67648 50.0736a175.04256 175.04256 0 0 1-20.84864 0.8192l0.512 0.14336z m347.8528 81.63328l16.71168 60.02688-63.3856-35.84c-24.1664 4.97664-47.55456 12.53376-71.74144 12.53376-111.75936 0-200.35584-76.71808-200.35584-171.84768s88.4736-171.84768 200.35584-171.84768c105.59488 0.14336 200.92928 76.86144 200.92928 171.99104 0 53.3504-35.84 100.92544-82.57536 135.12704l0.06144-0.14336zM337.6128 340.5824c-17.5104 0-35.84 10.8544-35.84 29.16352 0 18.3296 18.3296 29.24544 35.84 29.24544a28.71296 28.71296 0 0 0 29.696-29.24544 28.20096 28.20096 0 0 0-29.696-29.16352z m372.87936 170.68032a24.04352 24.04352 0 0 0-23.36768 24.1664 23.59296 23.59296 0 0 0 23.36768 21.68832c16.6912 0 29.16352-10.8544 29.16352-21.66784 0-13.35296-12.53376-24.18688-29.16352-24.18688z" fill="#19D100" p-id="21616"></path>
	</symbol>
	<symbol id="qq" viewBox="0 0 1024 1024">
		<defs><style type="text/css"></style></defs>
		<path d="M512 512m-512 0a512 512 0 1 0 1024 0 512 512 0 1 0-1024 0Z" fill="#18ACFC" p-id="24839"></path><path d="M500.113 228.39c118.396-1.518 178.924 61.004 201 156 3.497 15.048 0.15 34.807 0 50 27.142999999999997 5.682 33.087 60.106 10 75v1h1c8.26 14.329999999999998 19.04 28.125 26 44 7.332 16.723 9.305999999999997 35.16 14 55 4.024 17.01-2.287 51.505-10 57-0.7709999999999998 0.683-2.231 1.312-3 2-14.601-3.016-30.377-16.865-38-27-3.065-4.074-5.275-9.672-10-12-0.395 21.568-12.503 41.15-22 55-3.5139999999999993 5.123-14.073 13.216999999999999-14 18 3.690999999999999 2.836 8.305 2.955999999999999 13 5 10.513 4.577 25.449 13.168 32 22 2.333999999999999 3.146 5.548 7.554999999999999 7 11 16.193 38.414-36.527 48.314-63 54-27.185 5.839-77.818-10.224-92-19-8.749-5.414-16.863-18.573-29-19-3.666 2.3889999999999993-14.438 1.1319999999999997-20 1-16.829 32.804-101.913 47.867999999999995-148 31-14.061-5.146-43.398-17.695-38-40 4.437-18.327 19.947-29.224 35-37 5.759-2.975 18.915-4.419 22-10-13.141-8.988-24.521-28.659-31-44-3.412-8.077-4.193-25.775-9-32-7.789 12.245-32.097 36.91-52 33-3.071-4.553-7.213-9.097-9-15-4.792-15.835-1.81-40.379 2-54 8.117-29.02 16.965-50.62299999999998 32-72 4.672-6.643 11.425-12.135 16-19-8.945-9.733-6.951-37.535999999999994-1-49 4.002-7.709 9.701-7.413 10-20-1.9199999999999997-3.022-0.071-8.604-1-13-4.383-20.75 3.2729999999999997-47.552 9-63 19.8-53.420999999999985 53.712-90.466 105-112 11.986-5.033 25.833-7.783 39-11 5.322-1.3 11.969 0.518 16-2z" fill="#FFFFFF" p-id="24840"></path>
	</symbol>
	<symbol id="qqzone" viewBox="0 0 1024 1024">
		<defs><style type="text/css"></style></defs>
		<path d="M512 512m-512 0a512 512 0 1 0 1024 0 512 512 0 1 0-1024 0Z" fill="#FEBF00" p-id="14684"></path><path d="M512.01517 686.713363S350.331259 786.251852 340.280889 778.20397c-10.023822-8.047881 33.152-193.042963 33.152-193.042963s-144.611556-121.647407-138.58323-136.723911c6.006519-15.080296 191.808474-28.171378 191.808474-28.171377s69.303941-174.932385 85.357037-174.932386c17.071407 0 85.381689 174.933333 85.381689 174.933334s186.794667 13.090133 191.808474 28.169481c5.012859 15.077452-138.580385 136.725807-138.580385 136.725808s2.008178 12.071822 3.995496 20.122548c0 0.967111-67.271111 1.98637-122.529185 0-29.108148-1.019259-64.268326-7.032415-64.268326-7.032415L627.52237 483.6096s-57.245393-10.057956-116.500859-13.087289c-64.291081-1.989215-129.55117 4.047644-138.606933 6.058667-6.028326 0.994607 41.163852 0.994607 95.407407 6.036859 38.162963 3.00563 87.368059 13.06643 87.368059 13.06643l-159.673837 119.637333s32.134637 6.034963 145.627971 3.026489c113.472474-3.026489 151.637333-11.077215 151.637333-11.077215s-8.017541 4.023941-16.055941 6.058667a212.214519 212.214519 0 0 0-18.08877 5.018548c12.060444 53.287822 33.152 149.817837 25.109807 157.818311-12.058548 13.090133-171.732385-89.453037-171.732385-89.453037" fill="#FFFFFF" p-id="14685"></path>
	</symbol>
	<symbol id="tieba" viewBox="0 0 1024 1024">
		<defs><style type="text/css"></style></defs>
		<path d="M512 7.68C233.472 7.68 8.192 233.472 8.192 512s225.792 503.808 503.808 503.808 503.808-225.792 503.808-503.808c0-278.528-225.28-504.32-503.808-504.32z m0 187.392" fill="#3385FF" p-id="2998"></path><path d="M472.576 273.408H329.728c-40.448 0-71.168 30.72-71.168 71.168v297.472c0 7.168 4.608 11.776 11.776 11.776h23.552c7.168 0 11.776-4.608 11.776-11.776V330.752c0-4.608 4.608-9.728 9.728-9.728h123.904c4.608 0 9.728 4.608 9.728 9.728v311.808c0 7.168 4.608 11.776 11.776 11.776h23.552c7.168 0 11.776-4.608 11.776-11.776V297.472c0.512-12.288-9.216-24.064-23.552-24.064z m14.336 452.096c-9.728-2.56-23.552-9.728-45.056-23.552-45.056-35.84-43.008-71.168-43.008-71.168V380.416c0-7.168-4.608-11.776-11.776-11.776H363.52c-7.168 0-11.776 4.608-11.776 11.776l-2.56 249.856s0 47.616-33.28 73.728c-18.944 11.776-37.888 18.944-47.616 21.504-4.608 0-9.728 4.608-9.728 9.728v23.552c0 7.168 7.168 11.776 14.336 11.776 16.896-2.56 43.008-7.168 59.392-18.944 37.888-23.552 45.056-47.616 45.056-47.616s7.168 21.504 47.616 45.056c21.504 14.336 43.008 18.944 57.344 18.944 7.168 0 14.336-4.608 14.336-11.776v-23.552c0-2.56-5.12-4.608-9.728-7.168z m259.584-214.016h-107.008V392.704h107.008c7.168 0 11.776-4.608 11.776-11.776v-23.552c0-7.168-4.608-11.776-11.776-11.776h-107.008V285.184c0-7.168-4.608-11.776-11.776-11.776H604.16c-7.168 0-11.776 4.608-11.776 11.776v225.792h-35.84c-7.168 0-11.776 4.608-11.776 11.776v238.08c0 7.168 4.608 11.776 11.776 11.776h131.072c40.448 0 71.168-33.28 71.168-71.168v-178.688c-0.512-6.656-5.632-11.264-12.288-11.264z m-35.84 190.464c0 14.336-11.776 23.552-23.552 23.552H599.04c-4.608 0-7.168-2.56-7.168-7.168v-152.064c0-4.608 2.56-7.168 7.168-7.168h104.448c4.608 0 7.168 2.56 7.168 7.168v135.68z m0 0" fill="#FFFFFF" p-id="2999"></path>
	</symbol>
	<symbol id="phone" viewBox="0 0 1024 1024">
		<defs><style type="text/css"></style></defs>
		<path d="M717.76 64.128H306.112a88.96 88.96 0 0 0-88.768 88.96V870.976c0 49.088 39.808 88.896 88.768 88.896h411.648a88.96 88.96 0 0 0 88.896-88.896V153.088c0-49.088-39.936-88.96-88.896-88.96M272.192 256.896h479.552v479.744H272.192V256.896z m479.552 614.08a33.984 33.984 0 0 1-33.984 33.984H306.112a33.92 33.92 0 0 1-33.856-33.984v-79.488h479.552v79.488h-0.064zM272.192 202.048v-48.96c0-18.752 15.232-34.048 33.856-34.048h411.648c18.752 0 33.984 15.296 33.984 34.048v48.96H272.192zM512 898.112l0 0m33.024-746.176H478.976a12.416 12.416 0 0 0 0 24.896h66.048c6.848 0 12.352-5.632 12.352-12.48s-5.44-12.416-12.352-12.416" fill="#515151" p-id="4297"></path>
	</symbol>
	<symbol id="link" viewBox="0 0 1024 1024">
		<defs><style type="text/css"></style></defs>
		<path d="M512 1024A512 512 0 1 1 1024 512 512 512 0 0 1 512 1024z m125.192258-471.04a20.48 20.48 0 0 0 14.534194-5.945806l71.019354-71.019355a123.870968 123.870968 0 0 0-175.070967-175.070968l-71.019355 71.349677a20.48 20.48 0 1 0 29.068387 29.068387L577.073548 330.322581A82.580645 82.580645 0 0 1 693.677419 446.926452l-71.019354 71.019354a20.48 20.48 0 0 0 14.534193 35.344517zM387.79871 759.741935a123.540645 123.540645 0 0 0 87.535484-36.335483l72.340645-72.340646a20.48 20.48 0 0 0-29.068387-29.068387L446.265806 693.677419A82.580645 82.580645 0 1 1 330.322581 577.734194l72.340645-72.340646a20.48 20.48 0 1 0-29.068387-29.068387l-73.331613 72.340645A123.870968 123.870968 0 0 0 387.79871 759.741935z m61.770322-165.16129a20.48 20.48 0 0 0 14.534194-5.945806l123.870968-123.870968a20.48 20.48 0 1 0-29.068388-29.068387l-123.870967 123.870968a20.48 20.48 0 0 0 14.864516 35.014193z" fill="#AAA" p-id="2294"></path>
	</symbol>
</svg>