<?xml version="1.0" standalone="no"?><!DOCTYPE svg PUBLIC "-//W3C//DTD SVG 1.1//EN" "http://www.w3.org/Graphics/SVG/1.1/DTD/svg11.dtd"><svg t="1573355343723" class="icon" viewBox="0 0 1024 1024" version="1.1" xmlns="http://www.w3.org/2000/svg" p-id="526" xmlns:xlink="http://www.w3.org/1999/xlink" width="200" height="200"><defs><style type="text/css"></style></defs><path d="M507.497 832.186c-8.619 0-16.575-5.615-19.16-14.298-19.256-64.67-41.836-133.166-76.374-195.926-5.325-9.677-1.797-21.839 7.88-27.165 9.674-5.325 21.838-1.798 27.165 7.879 36.355 66.064 59.773 136.991 79.665 203.796 3.152 10.586-2.874 21.724-13.461 24.876a19.958 19.958 0 0 1-5.715 0.838z" fill="#d81e06" p-id="527"></path><path d="M507.357 832.135a19.98 19.98 0 0 1-6.321-1.03c-10.479-3.489-16.146-14.813-12.657-25.293 22.045-66.214 47.956-136.724 87.932-203.743 5.659-9.487 17.938-12.589 27.422-6.931 9.486 5.659 12.59 17.936 6.932 27.422-38.02 63.739-63.001 131.815-84.334 195.888-2.792 8.383-10.598 13.687-18.974 13.687zM429.46 632.321c-9.87 0-18.458-7.306-19.799-17.358-3.743-28.062-5.641-56.756-5.641-85.286 0-115.75 31.258-229.151 90.395-327.945 5.673-9.479 17.954-12.561 27.433-6.889 9.478 5.673 12.562 17.955 6.888 27.433-55.421 92.586-84.715 198.884-84.715 307.4 0 26.767 1.779 53.683 5.289 79.998 1.461 10.949-6.231 21.008-17.181 22.468a19.79 19.79 0 0 1-2.669 0.179z" fill="#d81e06" p-id="528"></path><path d="M593.513 632.316c-0.882 0-1.772-0.058-2.67-0.178-10.948-1.46-18.641-11.52-17.18-22.468 3.508-26.305 5.287-53.218 5.287-79.993 0-108.59-29.331-214.95-84.823-307.58-5.676-9.476-2.597-21.759 6.879-27.436 9.477-5.675 21.758-2.597 27.436 6.879 59.211 98.84 90.509 212.308 90.509 328.137 0 28.537-1.897 57.229-5.639 85.281-1.341 10.052-9.929 17.358-19.799 17.358zM410.072 712.883c-3.66 0-7.364-1.004-10.686-3.108-40.31-25.539-75.856-57.461-105.651-94.88-29.219-36.696-52.149-77.704-68.155-121.883-16.127-44.514-24.759-90.984-25.656-138.122-0.927-48.688 6.445-96.965 21.911-143.49 3.484-10.482 14.808-16.153 25.287-12.67 10.482 3.484 16.154 14.806 12.67 25.288-56.58 170.207 9.627 356.062 161.003 451.967 9.33 5.911 12.103 18.268 6.19 27.599-3.807 6.01-10.289 9.299-16.913 9.299z" fill="#d81e06" p-id="529"></path><path d="M415.409 714.905a20.03 20.03 0 0 1-4.228-0.452c-10.798-2.324-17.668-12.961-15.345-23.76 36.729-170.666-28.833-350.118-167.023-457.174-8.732-6.765-10.327-19.327-3.563-28.059 6.765-8.733 19.33-10.326 28.059-3.563 73.507 56.945 129.48 133.396 161.869 221.087 32.731 88.623 39.566 184.104 19.764 276.124-2.018 9.381-10.311 15.797-19.533 15.797zM612.811 713.597c-6.646 0-13.147-3.312-16.948-9.354-5.881-9.35-3.069-21.697 6.281-27.578 152.364-95.841 218.951-282.144 161.927-453.056-3.496-10.478 2.164-21.806 12.642-25.302 10.478-3.496 21.808 2.164 25.302 12.642 15.57 46.665 22.993 95.095 22.063 143.945-0.9 47.289-9.583 93.901-25.808 138.543-16.104 44.309-39.172 85.412-68.563 122.166-29.976 37.487-65.729 69.423-106.265 94.92a19.911 19.911 0 0 1-10.631 3.074z" fill="#d81e06" p-id="530"></path><path d="M607.558 715.338c-9.223 0-17.515-6.416-19.533-15.797-19.853-92.27-12.929-187.986 20.022-276.8 32.611-87.898 88.905-164.426 162.795-221.31 8.753-6.739 21.311-5.104 28.048 3.647 6.738 8.752 5.105 21.31-3.647 28.048C656.274 340.11 590.286 519.887 627.13 691.127c2.323 10.799-4.547 21.437-15.346 23.76a20.148 20.148 0 0 1-4.226 0.451zM481.035 749.803a19.94 19.94 0 0 1-7.456-1.45 438.317 438.317 0 0 1-74.408-38.603c-9.272-6.002-11.925-18.384-5.923-27.657 6.003-9.273 18.384-11.924 27.657-5.923a398.158 398.158 0 0 0 67.6 35.072c10.248 4.122 15.214 15.771 11.093 26.019-3.138 7.802-10.64 12.542-18.563 12.542z" fill="#d81e06" p-id="531"></path><path d="M541.795 750.674c-7.924 0-15.424-4.741-18.563-12.542-4.121-10.248 0.845-21.897 11.093-26.019a398.029 398.029 0 0 0 67.597-35.071c9.272-6.002 21.655-3.352 27.657 5.921 6.003 9.272 3.352 21.655-5.921 27.657a438.095 438.095 0 0 1-74.406 38.603 19.927 19.927 0 0 1-7.457 1.451z" fill="#d81e06" p-id="532"></path><path d="M356.067 602.354a9.977 9.977 0 0 1-7.547-3.435c-62.317-71.599-96.637-163.369-96.637-258.406 0-5.523 4.478-10 10-10s10 4.477 10 10c0 90.21 32.574 177.317 91.723 245.275 3.626 4.166 3.188 10.482-0.978 14.108a9.958 9.958 0 0 1-6.561 2.458z" fill="#d81e06" p-id="533"></path><path d="M668.132 602.354a9.962 9.962 0 0 1-6.562-2.457c-4.166-3.626-4.604-9.942-0.978-14.108 59.149-67.959 91.725-155.066 91.725-245.275 0-5.523 4.478-10 10-10s10 4.477 10 10c0 95.035-34.32 186.806-96.639 258.406a9.978 9.978 0 0 1-7.546 3.434z" fill="#d81e06" p-id="534"></path></svg>