<?xml version="1.0" standalone="no"?><!DOCTYPE svg PUBLIC "-//W3C//DTD SVG 1.1//EN" "http://www.w3.org/Graphics/SVG/1.1/DTD/svg11.dtd"><svg t="1543388678060" class="icon" style="" viewBox="0 0 1024 1024" version="1.1" xmlns="http://www.w3.org/2000/svg" p-id="3263" xmlns:xlink="http://www.w3.org/1999/xlink" width="200" height="200"><defs><style type="text/css"></style></defs><path d="M911.941 434.748c11.453 36.715 18.316 73.864 19.739 109.927C941.741 799.345 743.513 1024 511.421 1024c-232.12 0-426.309-224.494-420.289-479.325 0.902-37.93 7.105-75.419 17.209-111.715C44.322 393.395 0.985 318.208 0.985 231.773c0-127.46 94.092-230.8 210.159-230.8 79.082 0 147.876 48.046 183.732 118.924 36.919-12.104 75.922-19.055 116.544-19.055 40.433 0 79.236 7.393 115.885 20.455C662.941 49.614 732.205 0.973 811.837 0.973c116.046 0 210.137 103.34 210.137 230.8 0 87.65-44.494 163.907-110.033 202.975zM811.456 100.793c-51.959 0-96.013 36.451-112.556 87.209-2.933 24.216-21.602 42.939-44.45 42.939-7.464 0-14.4-2.182-20.589-5.7 0 0.046-0.044 0.128-0.044 0.176-37.72-16.518-78.84-25.691-121.956-25.691-43.146 0-84.339 9.125-122.11 25.666 0-0.055-0.022-0.105-0.022-0.151-6.211 3.518-13.147 5.7-20.612 5.7-22.636 0-41.165-18.384-44.376-42.238-0.308 0.185-0.682 0.267-0.99 0.443-16.264-51.389-60.647-88.354-112.98-88.354-66.096 0-119.683 58.854-119.683 131.446 0 57.139 33.283 105.652 79.646 123.748-0.095 0.199-0.139 0.435-0.234 0.645 22.306 2.93 39.707 23.571 39.707 48.874 0 8.271-2.009 15.945-5.287 22.791 0.022 0 0.044 0.025 0.066 0.025-15.039 41.481-23.369 86.716-23.369 134.111 0 200.317 147.87 362.721 330.246 362.721 182.405 0 330.259-162.403 330.259-362.721 0-47.361-8.389-92.525-23.377-133.983-3.3-6.869-5.353-14.625-5.353-22.944 0-25.303 17.319-45.919 39.626-48.874-0.162-0.34-0.235-0.75-0.396-1.087 45.799-18.459 78.518-66.635 78.518-123.305-0.001-72.593-53.588-131.446-119.684-131.446z" p-id="3264" fill="#1296db"></path></svg>