<?xml version="1.0" standalone="no"?><!DOCTYPE svg PUBLIC "-//W3C//DTD SVG 1.1//EN" "http://www.w3.org/Graphics/SVG/1.1/DTD/svg11.dtd"><svg t="1543388633077" class="icon" style="" viewBox="0 0 1075 1024" version="1.1" xmlns="http://www.w3.org/2000/svg" p-id="1673" xmlns:xlink="http://www.w3.org/1999/xlink" width="209.9609375" height="200"><defs><style type="text/css"></style></defs><path d="M755.094959 4.801876c6.002345-6.002345 15.606096-6.002345 21.608441 0s6.002345 15.606096 0 21.608441L575.024619 228.089097h348.135991c42.016413 0 80.431419 16.806565 108.042204 44.417351s44.417351 66.025791 44.41735 108.042204v492.192262c0 42.016413-16.806565 79.23095-44.41735 106.841735s-66.025791 44.417351-108.042204 44.417351H152.459555c-42.016413 0-80.431419-16.806565-108.042204-44.417351S0 914.757327 0 872.740914V380.548652c0-42.016413 16.806565-80.431419 44.417351-108.042204s66.025791-44.417351 108.042204-44.417351h348.13599L298.916764 26.410317c-6.002345-6.002345-6.002345-15.606096 0-21.608441s15.606096-6.002345 21.608441 0l217.284877 217.284877L755.094959 4.801876z m168.065651 254.499414H152.459555c-33.61313 0-63.624853 13.205158-85.233295 36.014068-22.80891 21.608441-36.014068 51.620164-36.014068 85.233294v492.192262c0 32.412661 13.205158 62.424385 36.014068 85.233295 21.608441 21.608441 51.620164 34.813599 85.233295 34.813599h770.701055c33.61313 0 63.624853-13.205158 85.233294-34.813599 22.80891-22.80891 36.014068-52.820633 36.014068-85.233295V380.548652c0-33.61313-13.205158-63.624853-36.014068-85.233294-21.608441-22.80891-51.620164-36.014068-85.233294-36.014068zM450.17585 445.373974l144.056272 82.832357 145.256741 84.032825c8.403283 4.801876 10.80422 14.405627 6.002345 21.608441-1.200469 2.400938-3.601407 4.801876-6.002345 6.002344l-145.256741 84.032826-145.256741 84.032825c-8.403283 4.801876-18.007034 2.400938-21.608441-6.002345-1.200469-2.400938-2.400938-4.801876-2.400938-7.202813V457.378664c0-8.403283 7.202814-15.606096 15.606096-15.606097 3.601407 0 6.002345 1.200469 9.603752 3.601407z m128.450176 110.443142l-122.447831-70.827667v282.110199l122.447831-69.627198 122.447831-70.827667-122.447831-70.827667z" fill="#1296db" p-id="1674"></path></svg>