<?xml version="1.0" standalone="no"?><!DOCTYPE svg PUBLIC "-//W3C//DTD SVG 1.1//EN" "http://www.w3.org/Graphics/SVG/1.1/DTD/svg11.dtd"><svg t="1543637522692" class="icon" style="" viewBox="0 0 1024 1024" version="1.1" xmlns="http://www.w3.org/2000/svg" p-id="8490" xmlns:xlink="http://www.w3.org/1999/xlink" width="200" height="200"><defs><style type="text/css"></style></defs><path d="M729.552851 947.106726c-81.573877 0-147.936307-66.36243-147.936307-147.936307s66.36243-147.936307 147.936307-147.936307S877.489158 717.596542 877.489158 799.170418 811.126728 947.106726 729.552851 947.106726zM729.552851 686.042895c-62.376653 0-113.127524 50.750871-113.127524 113.127524 0 62.376653 50.750871 113.127524 113.127524 113.127524 62.376653 0 113.127524-50.750871 113.127524-113.127524C842.680375 736.793766 791.929504 686.042895 729.552851 686.042895z" p-id="8491" fill="#1296db"></path><path d="M294.446126 668.638503c-81.573877 0-147.936307-66.36243-147.936307-147.936307s66.36243-147.936307 147.936307-147.936307 147.936307 66.36243 147.936307 147.936307S376.020002 668.638503 294.446126 668.638503zM294.446126 407.574672c-62.376653 0-113.127524 50.750871-113.127524 113.127524s50.750871 113.127524 113.127524 113.127524 113.127524-50.750871 113.127524-113.127524S356.822778 407.574672 294.446126 407.574672z" p-id="8492" fill="#1296db"></path><path d="M729.552851 372.765889c-81.573877 0-147.936307-66.36243-147.936307-147.936307S647.978974 76.893274 729.552851 76.893274 877.489158 143.255705 877.489158 224.829582 811.126728 372.765889 729.552851 372.765889zM729.552851 111.702058c-62.376653 0-113.127524 50.750871-113.127524 113.127524s50.750871 113.127524 113.127524 113.127524c62.376653 0 113.127524-50.750871 113.127524-113.127524S791.929504 111.702058 729.552851 111.702058z" p-id="8493" fill="#1296db"></path><path d="M400.784012 473.579969 379.555525 445.994704 605.811596 271.951809 627.040083 299.537074Z" p-id="8494" fill="#1296db"></path><path d="M418.635487 568.158424l191.457211 156.628819-22.040922 26.941999-191.457211-156.628819 22.040922-26.941999Z" p-id="8495" fill="#1296db"></path></svg>